<svg xmlns="http://www.w3.org/2000/svg" viewBox="0 0 512 512" role="img" aria-label="desimms.de icon">
  <defs>
    <linearGradient id="bg" x1="0" y1="0" x2="0" y2="1">
      <stop offset="0%" stop-color="#1b050d"/>
      <stop offset="55%" stop-color="#140107"/>
      <stop offset="100%" stop-color="#090000"/>
    </linearGradient>
    <linearGradient id="gold" x1="0" y1="0" x2="1" y2="1">
      <stop offset="0%" stop-color="#fff7d2"/>
      <stop offset="35%" stop-color="#f7d78a"/>
      <stop offset="70%" stop-color="#dca64c"/>
      <stop offset="100%" stop-color="#fff0b8"/>
    </linearGradient>
    <filter id="softGlow" x="-30%" y="-30%" width="160%" height="160%">
      <feGaussianBlur stdDeviation="8" result="blur"/>
      <feColorMatrix in="blur" type="matrix" values="1 0 0 0 0.9 0 1 0 0 0.7 0 0 1 0 0.3 0 0 0 0.55 0"/>
    </filter>
  </defs>
  <rect width="512" height="512" rx="88" fill="url(#bg)"/>
  <ellipse cx="256" cy="154" rx="150" ry="60" fill="#ffcf8a" opacity=".06" filter="url(#softGlow)"/>
  <g fill="none" stroke="url(#gold)" stroke-linecap="round" stroke-linejoin="round">
    <path d="M222 186l34-38 34 38" stroke-width="12"/>
    <path d="M192 194l30-14 34 32 34-32 30 14" stroke-width="12"/>
    <path d="M206 206c12 10 24 15 50 15s38-5 50-15" stroke-width="10"/>
    <path d="M220 212v18M292 212v18" stroke-width="10"/>
  </g>
  <g fill="url(#gold)" font-family="Arial, Helvetica, sans-serif" font-weight="700" text-anchor="middle">
    <text x="256" y="336" font-size="86" letter-spacing="-2">desimms.de</text>
  </g>
  <rect x="110" y="372" width="292" height="18" rx="9" fill="#f7d78a" opacity=".12"/>
</svg>
